<svg width="24" height="24" viewBox="0 0 24 24" fill="none" xmlns="http://www.w3.org/2000/svg">
<path d="M21.1431 0H2.80661C1.25904 0 0 1.25904 0 2.80661V21.1431C0 22.6907 1.25904 23.9497 2.80661 23.9497H21.1431C22.6907 23.9497 23.9497 22.6907 23.9497 21.1431V2.80661C23.9497 1.25904 22.6907 0 21.1431 0ZM22.0787 21.1431C22.0787 21.659 21.659 22.0787 21.1431 22.0787H15.8106V14.454H18.7009L19.1785 11.5539H15.8106V9.54247C15.8106 8.74843 16.4198 8.13916 17.2139 8.13916H19.1317V5.239H17.2139C14.8318 5.239 12.9114 7.16855 12.9114 9.55061V11.5539H10.1038V14.454H12.9114V22.0787H2.80661C2.29075 22.0787 1.87107 21.659 1.87107 21.1431V2.80661C1.87107 2.29075 2.29075 1.87107 2.80661 1.87107H21.1431C21.659 1.87107 22.0787 2.29075 22.0787 2.80661V21.1431Z" fill="white"/>
</svg>
