<svg width="653" height="373" viewBox="0 0 653 373" fill="none" xmlns="http://www.w3.org/2000/svg">
<path d="M72.3019 333.609C72.3019 333.609 10.2527 201.523 132.543 201.523C197.158 201.523 170.548 165.283 214.469 123.342C258.391 81.4018 412.031 47.8954 444.721 128.882C477.41 209.87 396.607 271.362 474.695 260.815C568.532 248.137 605.6 333.609 605.6 333.609H72.3019Z" fill="url(#paint0_radial)"/>
<path d="M291.045 314.266H202.401V334.274H291.045V314.266Z" fill="#5D16BF"/>
<path d="M263.711 314.266H175.07V334.276H263.711V314.266Z" fill="#5D16BF"/>
<path d="M325.916 334.27H391.921V242.049H325.916V334.27Z" fill="#0697F2"/>
<path d="M305.562 334.27H371.567V242.049H305.562V334.27Z" fill="#06C6F2"/>
<path d="M371.567 242.049L391.919 255.896V242.049H371.567Z" fill="#3854F3"/>
<path d="M430.46 111.852C429.439 111.696 426.364 114.537 426.364 114.537C419.799 115.297 410.2 117.039 406.745 117.703C404.294 118.175 397.707 115.931 391.271 113.353C383.617 110.281 376.181 106.748 376.181 106.748C371.933 106.529 367.111 114.276 375.724 119.2C377.041 119.952 381.978 121.236 387.667 122.408C395.514 124.025 404.788 125.427 407.939 124.935C411.605 124.363 421.987 120.567 428.153 117.662H428.168L428.236 117.629C428.607 117.456 430.117 116.782 431.127 116.843C432.284 116.911 434.858 114.796 434.937 114.232C435.016 113.668 431.48 112.005 430.46 111.852Z" fill="#733E1F"/>
<path d="M422.444 209.42L418.829 210.155C418.829 210.155 402.285 191.575 399.733 183.757C398.367 179.589 389.636 177.772 380.505 175.42C372.561 173.368 364.319 170.893 360.384 166.066C351.922 155.697 365.695 142.953 365.695 142.953C365.695 142.953 380.342 151.655 392.977 160.645C401.807 166.926 409.658 173.348 410.839 177.039C413.712 186.009 419.803 203.07 422.444 209.42Z" fill="#010658"/>
<path d="M417.604 215.55H419.639C420.319 215.442 420.822 215.245 421.52 215.155C422.582 215.015 423.069 215.451 423.166 215.55L423.186 215.57H431.823C432.042 215.26 431.823 214.543 431.628 214.014C431.56 213.837 431.451 213.677 431.311 213.549C431.171 213.421 431.003 213.327 430.82 213.275C429.905 213.009 428.098 212.772 426.443 211.276C425.515 210.435 421.952 208.187 421.952 208.187H421.932C421.853 208.187 421.493 208.303 419.86 209.67C419.024 210.376 417.595 208.674 417.595 208.674C417.4 208.852 417.241 209.068 417.128 209.308C416.928 209.716 416.863 210.177 416.941 210.624C417.071 211.403 416.656 212.849 416.322 213.825C416.122 214.418 415.953 214.839 415.953 214.839C415.953 214.839 415.855 215.331 417.604 215.55Z" fill="#000326"/>
<path d="M392.977 160.638L380.505 175.413C372.561 173.362 364.319 170.887 360.384 166.06C351.922 155.69 365.695 142.947 365.695 142.947C365.695 142.947 380.342 151.649 392.977 160.638Z" fill="#000326"/>
<path d="M381.644 152.93C381.644 152.93 380.639 156.098 379.01 160.866C376.94 166.895 373.858 175.479 370.516 183.441C369.78 185.197 369.032 186.91 368.279 188.565C365.498 194.691 362.653 199.943 360.158 202.607C355.653 207.403 344.707 238.246 344.707 238.246L341.979 237.491C341.979 237.491 338.175 211.162 351.637 196.169C351.788 196.019 351.884 195.822 351.909 195.61C352.089 193.392 352.73 183.459 354.126 173.392C354.468 170.922 354.857 168.447 355.291 166.075C355.32 165.921 355.348 165.772 355.377 165.623C357.425 154.652 359.387 149.773 361.92 147.32L380.549 152.618L381.644 152.93Z" fill="#010658"/>
<path d="M341.654 242.029H343.689C344.369 241.921 344.872 241.724 345.57 241.632C346.632 241.493 347.119 241.928 347.216 242.029L347.236 242.049H355.873C356.092 241.737 355.873 241.019 355.678 240.491C355.609 240.313 355.501 240.154 355.361 240.026C355.22 239.898 355.052 239.804 354.87 239.751C353.952 239.486 352.148 239.251 350.493 237.755C349.562 236.914 346 234.663 346 234.663H345.982C345.903 234.663 345.543 234.779 343.91 236.146C343.074 236.853 341.645 235.15 341.645 235.15C341.449 235.329 341.291 235.544 341.178 235.784C340.976 236.196 340.911 236.661 340.991 237.112C341.121 237.888 340.706 239.334 340.374 240.313C340.172 240.905 340.001 241.324 340.001 241.324C340.001 241.324 339.905 241.809 341.654 242.029Z" fill="#000326"/>
<path d="M345.649 117.102C345.649 117.102 342.532 124.722 338.939 132.141C335.916 138.379 332.558 144.472 330.429 145.773C327.426 147.605 319.156 152.776 313.789 156.636C313.789 156.636 309.603 156.603 308.96 157.404C308.317 158.205 306.809 161.807 307.248 162.172C307.687 162.536 311.015 162.367 311.822 161.538C312.529 160.816 314.099 160.296 314.489 160.175L314.562 160.151H314.579C321.098 158.145 331.327 153.968 334.422 151.925C337.088 150.17 342.997 142.89 347.71 136.415C351.127 131.719 353.915 127.448 354.38 126.006C357.427 116.565 348.643 114.094 345.649 117.102Z" fill="#8C4E2A"/>
<path d="M361.949 87.214C361.604 86.7128 361.232 86.2315 360.834 85.7725C361.301 85.7968 361.768 85.7267 362.208 85.5662C363.305 85.1142 363.801 81.6431 363.636 80.6119C363.472 79.5806 361.953 76.6054 360.078 76.3092C358.204 76.013 356.268 78.0908 356.268 78.0908C356.615 76.5901 359.78 75.7234 359.78 75.7234C353.25 76.928 353.584 81.2811 353.634 81.6848C347.657 79.5543 344.147 90.808 344.147 90.808L359.633 99.9311C359.633 99.9311 359.672 97.4452 361.15 97.6053C363.452 97.8577 365.37 92.199 361.949 87.214Z" fill="#401E12"/>
<path d="M362.936 110.827C359.383 112.501 354.668 110.09 354.692 110.064C354.997 109.761 354.89 108.848 354.611 107.65C354.332 106.406 353.671 104.706 352.453 102.678C352.201 102.239 351.946 101.814 351.641 101.362L352.047 101.21L358.95 98.4458C358.95 98.4458 360.068 100.449 361.235 102.275C362.225 103.797 363.266 105.169 363.722 105.116C363.748 105.098 368.314 108.24 362.936 110.827Z" fill="#8C4E2A"/>
<path d="M358.95 99.1323C358.772 101.592 357.936 106.033 354.611 107.656C354.332 106.412 353.671 104.712 352.453 102.685L358.95 99.1323Z" fill="#733E1F"/>
<path d="M352.049 105.484C352.049 105.484 361.038 101.943 358.744 96.3831C356.45 90.8232 356.068 86.6193 350.234 88.6467C344.4 90.674 344.165 93.2543 344.479 95.2905C344.793 97.3266 349.657 106.261 352.049 105.484Z" fill="#8C4E2A"/>
<path d="M355.401 95.115C359.552 94.5292 360.763 92.8529 360.763 92.8529C358.244 91.9901 356.103 90.2801 354.705 88.0148C354.705 88.0148 350.041 86.4417 346.584 89.0702C346.364 89.3563 346.213 89.6899 346.145 90.0444C345.352 89.7855 344.169 89.8535 343.474 92.0915C342.442 95.4529 346.108 99.1258 346.108 99.1258C346.999 98.8735 345.993 95.8764 345.853 94.2768C345.75 93.1008 346.386 91.5934 346.731 90.8804C347.17 91.4508 351.549 96.9493 356.894 97.1687C354.972 96.4537 353.157 95.4801 351.498 94.2747C352.776 94.9022 354.134 95.2927 355.401 95.115Z" fill="#401E12"/>
<path d="M380.046 122.285C379.969 122.015 379.888 121.736 379.802 121.451C380.942 119.33 381.709 117.03 382.07 114.649C382.68 110.54 381.631 108.001 381.631 108.001C381.631 108.001 375.397 104.697 372.645 104.271L372.609 104.26L372.5 104.249C369.721 103.867 363.705 105.094 363.705 105.094C363.705 105.094 364.866 108.183 361.593 110.241C358.32 112.299 354.822 109.713 354.822 109.713C354.716 109.785 354.602 109.862 354.49 109.945C354.49 109.945 345.877 115.628 345.104 116.925C344.332 118.221 341.017 124.652 341.017 124.652C341.017 124.652 342.069 130.048 353.704 130.5C354.661 132.819 355.394 135.081 355.631 136.968C356.556 144.294 355.482 150.071 356.56 154.347C357.638 158.624 377.052 156.186 380.568 155.363C384.085 154.541 383.292 150.786 383.564 147.142C383.911 142.574 381.192 126.324 380.046 122.285Z" fill="#06C6F2"/>
<path d="M382.07 114.658C381.706 117.047 380.934 119.355 379.787 121.482C379.482 120.137 378.251 115.215 376.233 112.984C376.233 112.984 379.609 113.289 382.07 114.658Z" fill="#0697F2"/>
<path d="M303.018 162.667C303.018 162.667 306.636 158.279 307.408 157.768C308.181 157.257 311.603 156.342 311.798 156.524C311.994 156.706 312.002 156.963 311.579 157.347C311.155 157.731 309.54 158.663 309.77 158.768C310 158.874 314.875 156.449 315.58 157.265C316.285 158.082 315.181 161.447 313.302 163.062C311.423 164.677 305.817 165.366 305.466 165.592C302.481 167.503 303.018 162.667 303.018 162.667Z" fill="#FFD3C1"/>
<path d="M239.336 152.55C239.336 152.55 244.534 158.711 251.149 156.133C251.149 156.133 252.574 152.693 252.594 150.154C252.594 149.843 252.594 149.54 252.594 149.253C252.629 146.4 252.725 144.792 252.725 144.792C252.425 144.667 242.609 140.639 242.618 140.972C242.791 148.7 239.336 152.55 239.336 152.55Z" fill="#FFD3C1"/>
<path d="M243.607 142.815C244.553 144.57 247.802 148 252.607 149.253C252.642 146.4 252.738 144.792 252.738 144.792C252.458 144.72 243.326 142.297 243.607 142.815Z" fill="#E8AEA4"/>
<path d="M254.793 144.496C254.793 144.496 243.754 147.089 242.244 140.193C240.734 133.297 238.293 128.988 245.276 127.042C252.258 125.095 254.209 127.423 255.274 129.602C256.338 131.781 257.624 143.644 254.793 144.496Z" fill="#FFD3C1"/>
<path d="M242.622 142.073C242.47 142.17 240.095 142.898 235.598 133.942C234.891 132.536 234.41 129.495 236.057 126.807C237.703 124.119 243.539 122.006 248.388 121.087C253.237 120.167 254.4 122.895 255.541 125.635C256.74 128.512 260.201 130.881 260.201 130.881C256.031 133.216 250.982 129.876 249.24 130.425C247.497 130.973 246.88 133.716 246.748 134.605C246.617 135.493 246.417 136.217 244.222 135.43C242.027 134.642 243.23 138.539 243.581 139.283C243.581 139.283 243.88 141.266 242.622 142.073Z" fill="#A9453D"/>
<path d="M214.188 314.266H207.505C206.104 314.266 204.546 312.844 204.157 310.244C203.769 307.644 200.887 306.22 200.264 304.1C199.64 301.981 202.834 298.973 202.834 298.973L203.367 298.277L203.923 297.553L209.217 298.815C209.217 298.815 209.348 300.092 209.436 301.72C209.493 302.894 209.524 304.252 209.458 305.45C209.302 308.302 210.242 311.348 212.733 311.901C215.224 312.453 214.188 314.266 214.188 314.266Z" fill="#000326"/>
<path d="M260.715 314.329H242.999C242.87 314.309 242.744 314.272 242.624 314.217C241.441 313.607 241.812 308.952 241.952 307.508C241.981 307.24 242.001 307.084 242.001 307.084C242.001 307.084 248.23 301.957 249.086 305.884C249.115 306.005 249.145 306.125 249.178 306.244C250.26 309.917 255.105 311.587 257.888 312.052C260.021 312.412 260.575 313.691 260.715 314.329Z" fill="#000326"/>
<path d="M257.146 211.919C257.146 211.919 256.2 223.719 255.087 237.902C253.575 257.17 251.757 280.838 251.575 285.321C251.266 293.106 250.019 305.559 250.019 305.559C250.019 305.559 247.06 308.519 241.14 307.271C241.14 307.271 235.872 289.498 234.36 270.684C234.336 270.374 234.312 270.065 234.29 269.754C232.887 250.605 230.708 210.293 230.708 210.293L257.146 211.919Z" fill="#010658"/>
<path d="M257.146 211.919C257.146 211.919 256.2 223.719 255.087 237.902L234.362 270.684C234.338 270.374 234.314 270.065 234.292 269.754C232.889 250.605 230.71 210.293 230.71 210.293L257.146 211.919Z" fill="#000326"/>
<path d="M252.824 213.321C252.824 213.321 235.771 256.054 224.557 276.136C213.343 296.219 209.851 301.823 209.851 301.823C209.851 301.823 203.429 299.256 202.845 297.503C202.845 297.503 207.132 258.733 214.641 249.283C218.883 243.942 223.859 227.916 224.103 222.31C224.347 216.704 225.62 205.615 225.62 205.615L252.824 213.321Z" fill="#010658"/>
<path d="M213.789 206.203C213.789 206.203 213.35 211.541 213.023 212.36C212.696 213.178 210.536 215.719 210.277 215.682C210.018 215.644 209.877 215.445 210.005 214.927C210.132 214.409 210.883 212.812 210.639 212.854C210.395 212.895 207.935 217.395 206.952 217.141C205.968 216.886 205.009 213.689 205.593 211.436C206.177 209.183 210.147 205.628 210.299 205.264C211.594 202.173 213.789 206.203 213.789 206.203Z" fill="#FFD3C1"/>
<path d="M211.95 207.564C213.837 208.169 214.145 208.033 214.145 208.033C214.145 208.033 223.33 191.314 224.261 189.783C225.192 188.251 243.768 171.034 243.768 171.034L238.994 153.24C238.994 153.24 217.863 180.576 215.58 184.506C211.813 190.989 209.601 206.05 209.601 206.05C210.242 206.747 211.05 207.268 211.95 207.564Z" fill="#46148D"/>
<path d="M260.746 178.013C260.68 181.666 260.467 185.774 260.179 189.947L260.127 190.689C259.944 193.273 259.745 195.865 259.519 198.39C259.426 199.404 259.329 200.403 259.227 201.389L259.211 201.521C259.211 201.89 259.159 202.289 259.119 202.653C258.186 212.114 257.21 219.592 257.03 219.706C256.818 219.854 256.56 219.92 256.303 219.89C253.821 219.579 246.413 220.142 240.35 218.824C235.234 217.744 230.826 215.699 226.157 212.941C225.538 212.575 224.125 211.605 224.241 210.881C224.353 210.085 224.562 208.933 224.827 207.485C225.747 202.451 227.334 193.793 227.876 183.661C227.981 181.774 228.135 179.909 228.335 178.077C228.801 173.572 229.628 169.113 230.809 164.741C232.887 157.257 235.943 151.526 239.775 149.283C240.275 149.005 242.971 150.718 245.445 152.305C247.53 153.639 250.006 154.226 252.468 153.97L254.527 156.248C257.023 159.146 259.679 163.005 260.403 168.489C260.458 168.894 260.504 169.324 260.544 169.783C260.751 172.521 260.819 175.268 260.746 178.013Z" fill="#5D16BF"/>
<path d="M260.746 178.013C260.68 181.666 260.467 185.774 260.179 189.947L260.127 190.689C245.947 181.818 243.763 165.581 243.763 165.581C250.739 165.886 256.275 167.49 260.553 169.783C260.757 172.521 260.822 175.268 260.746 178.013Z" fill="#46148D"/>
<path d="M305.172 163.106C304.441 161.132 303.304 161.257 303.304 161.257C303.304 161.257 282.219 166.509 280.327 166.742C278.435 166.975 257.624 158.624 257.624 158.624C257.624 158.624 249.433 154.949 245.596 158.303C242.262 161.219 242.111 164.912 242.89 168.015C243.351 169.821 244.346 171.446 245.745 172.679C247.144 173.911 248.882 174.694 250.732 174.924C259.222 176.006 276.161 178.039 279.706 177.546C287.608 176.449 305.514 166.114 305.514 166.114C305.633 165.099 305.516 164.069 305.172 163.106Z" fill="#5D16BF"/>
<path d="M513.063 201.734C513.063 201.734 515.991 204.448 515.42 206.376C514.849 208.305 512.204 209.589 511.847 211.947C511.489 214.306 510.062 215.59 508.774 215.59H502.646C502.646 215.59 501.697 213.931 503.984 213.431C506.272 212.93 507.132 210.161 506.989 207.59C506.847 205.018 507.209 201.591 507.209 201.591L512.066 200.448L513.063 201.734Z" fill="#000326"/>
<path d="M476.556 215.267C476.26 215.416 475.215 215.519 473.782 215.587H459.916C459.964 215.177 460.287 213.707 462.55 213.341C465.112 212.926 469.548 211.436 470.535 208.162C470.569 208.057 470.598 207.95 470.621 207.842C471.407 204.342 477.122 208.911 477.122 208.911C477.122 208.911 477.14 209.051 477.164 209.29C477.302 210.576 477.64 214.727 476.556 215.267Z" fill="#000326"/>
<path d="M463.233 121.673C463.233 121.673 464.1 132.498 465.12 145.512C466.508 163.188 468.176 184.903 468.34 189.015C468.626 196.159 469.769 207.583 469.769 207.583C469.769 207.583 472.482 210.297 477.915 209.154C477.915 209.154 482.744 192.843 484.135 175.584C484.157 175.301 484.179 175.016 484.199 174.733C485.485 157.165 487.491 120.172 487.491 120.172L463.233 121.673Z" fill="#010658"/>
<path d="M463.233 121.673C463.233 121.673 464.1 132.498 465.12 145.512L484.135 175.587C484.157 175.303 484.179 175.018 484.199 174.735C485.485 157.167 487.491 120.174 487.491 120.174L463.233 121.673Z" fill="#000326"/>
<path d="M467.197 122.958C467.197 122.958 482.842 162.165 493.13 180.589C503.418 199.013 506.631 204.156 506.631 204.156C506.631 204.156 512.527 201.8 513.063 200.193C513.063 200.193 509.129 164.622 502.239 155.951C498.345 151.052 493.773 136.349 493.558 131.206C493.343 126.063 492.164 115.889 492.164 115.889L467.197 122.958Z" fill="#010658"/>
<path d="M418.938 101.693C418.938 101.693 414.696 100.723 413.98 100.774C413.265 100.824 410.769 101.871 410.736 102.068C410.703 102.266 410.819 102.437 411.252 102.465C411.684 102.494 413.104 102.312 413.008 102.485C412.911 102.658 408.824 103.459 408.78 104.284C408.736 105.109 410.975 106.638 412.872 106.739C414.768 106.84 418.491 104.642 418.811 104.613C421.526 104.379 418.938 101.693 418.938 101.693Z" fill="#FFB27D"/>
<path d="M417.123 102.77C416.513 100.833 416.656 100.526 416.656 100.526C416.656 100.526 433.86 91.227 435.433 90.2835C437.007 89.3401 454.795 70.4312 454.795 70.4312L473.013 75.4425C473.013 75.4425 444.834 96.8988 440.796 99.2092C434.123 103.027 418.668 105.188 418.668 105.188C417.954 104.529 417.421 103.696 417.123 102.77Z" fill="#022972"/>
<path d="M460.305 61.2357C460.305 61.2357 453.922 72.463 447.681 73.9286C447.681 73.9286 447.94 70.1569 449.459 67.5767C448.838 66.8438 448.292 66.1702 447.817 65.5668C446.989 64.5274 446.216 63.4449 445.502 62.3239L447.618 56.6324L449.055 52.7708C449.687 53.9253 450.44 55.0095 451.301 56.0049C455.39 60.7047 460.305 61.2357 460.305 61.2357Z" fill="#FFB27D"/>
<path d="M451.301 56.005C451.301 56.005 452.062 61.6329 447.817 65.5669C446.989 64.5274 446.216 63.445 445.502 62.324L447.618 56.6325C449.889 55.9501 451.301 56.005 451.301 56.005Z" fill="#ED975D"/>
<path d="M443.82 63.1533C443.82 63.1533 453.36 59.4364 450.952 53.5343C448.544 47.6321 448.155 43.178 441.952 45.3019C435.75 47.4258 435.504 50.1575 435.826 52.3231C436.149 54.4887 441.276 63.9673 443.82 63.1533Z" fill="#FFB27D"/>
<path d="M493.091 118.851C489.243 124.38 460.476 131.77 460.825 127.941C461.055 125.43 461.055 122.904 460.825 120.393C460.753 119.573 460.652 118.703 460.52 117.785C459.789 112.756 458.053 106.287 454.181 98.8032C453.888 98.2415 453.586 97.6755 453.274 97.105C451.697 94.2355 450.362 91.2388 449.286 88.1464C447.293 82.389 446.49 76.8796 447.495 73.2791C447.495 73.2615 447.495 73.2439 447.51 73.2286C453.524 70.4486 455.851 59.6689 455.851 59.6689C455.851 59.6689 476.365 63.3507 487.858 90.685C487.849 90.685 496.438 114.039 493.091 118.851Z" fill="#2D1BA5"/>
<path d="M460.812 120.393C460.74 119.573 460.638 118.703 460.507 117.785C459.776 112.756 458.039 106.287 454.167 98.8032C454.826 94.7748 455.75 91.4244 456.758 89.9171C460.849 83.7867 463.233 82.8279 463.233 82.8279C463.233 82.8279 469.368 108.697 460.812 120.393Z" fill="#022972"/>
<path d="M428.473 114.239C428.473 114.239 422.797 114.535 421.917 114.853C421.037 115.172 418.276 117.374 418.306 117.64C418.337 117.905 418.543 118.079 419.096 117.954C419.65 117.829 421.368 117.098 421.316 117.346C421.263 117.594 416.412 120.067 416.649 121.115C416.886 122.164 420.251 123.288 422.665 122.739C425.08 122.191 428.974 118.098 429.364 117.949C432.681 116.683 428.473 114.239 428.473 114.239Z" fill="#FFB27D"/>
<path d="M427.402 116.389C426.265 114.553 427.086 113.717 427.086 113.717C427.086 113.717 444.617 99.9948 445.991 98.6081C447.365 97.2215 453.731 75.1486 453.731 75.1486C453.731 75.1486 455.926 66.2164 461.053 65.2312C465.511 64.3755 468.593 66.5806 470.61 69.1653C471.779 70.6758 472.466 72.5034 472.581 74.4099C472.695 76.3163 472.233 78.2131 471.253 79.8528C466.778 87.394 457.748 102.36 455.111 104.916C449.242 110.608 429.606 118.561 429.606 118.561C428.715 118.016 427.96 117.273 427.402 116.389Z" fill="#2D1BA5"/>
<path d="M452.319 42.5659C452.385 42.4342 452.581 42.2938 453.052 42.149C452.741 42.0587 452.411 42.0466 452.093 42.1139C451.825 41.4557 451.174 40.3476 449.953 40.3389C450.169 40.4042 450.366 40.517 450.532 40.6688C450.698 40.8207 450.828 41.0079 450.912 41.2165C449.24 40.1546 446.138 39.8474 438.401 42.4255C428.197 45.822 433.296 51.7439 434.841 52.2178C436.386 52.6918 439.231 49.6463 441.795 49.2294C444.358 48.8125 445.745 52.3802 446.716 52.6764C447.686 52.9726 447.137 52.1608 448.16 51.3468C449.183 50.5327 449.769 52.4438 449.747 53.7888C449.725 55.1338 451.722 56.4042 451.722 56.4042L452.892 54.2605C454.06 52.1169 453.742 44.3365 452.624 42.9345C452.517 42.8226 452.42 42.6975 452.319 42.5659Z" fill="#2B478B"/>
<path d="M291.043 314.04V325.583L263.711 314.04H291.043Z" fill="#46148D"/>
<path d="M524.957 215.587H434.564V334.269H524.957V215.587Z" fill="#022972"/>
<path d="M497.085 215.59H406.69V334.272H497.085V215.59Z" fill="#2D1BA5"/>
<path d="M524.957 215.59V233.336L497.085 215.59H524.957Z" fill="#010658"/>
<defs>
<radialGradient id="paint0_radial" cx="0" cy="0" r="1" gradientUnits="userSpaceOnUse" gradientTransform="translate(315.277 173.215) rotate(115.318) scale(205.187 443.48)">
<stop stop-color="#0500FF"/>
<stop offset="1" stop-color="#0500FF" stop-opacity="0"/>
</radialGradient>
</defs>
</svg>
